<svg width="506" height="224" viewBox="0 0 506 224" fill="none" xmlns="http://www.w3.org/2000/svg">
<path d="M505.011 113.345C504.172 92.7538 497.214 71.8109 483.095 53.5087C479.415 44.141 473.174 35.352 462.884 28.3662C453.34 21.8864 441.66 17.3348 429.157 14.1968C425.243 12.6757 421.207 11.3 417.052 10.0873C395.073 3.65694 371.097 1.47278 347.375 0.952189C321.826 0.39088 296.167 1.36808 270.639 2.05445C243.292 2.79026 215.958 3.69184 188.636 4.76502C133.828 6.91428 79.0798 9.73536 24.4202 13.2312C17.6916 13.6616 10.963 14.1037 4.23447 14.5516C3.00493 14.633 0.677267 15.1652 0.507675 16.1919C0.333843 17.2563 2.33927 17.4076 3.43314 17.3348C18.141 16.3489 32.8574 15.4183 47.578 14.5312C39.5266 15.1769 31.4795 15.8545 23.445 16.57C17.1447 17.1313 10.8443 17.7158 4.55246 18.3208C3.27203 18.4429 1.00797 18.9286 0.846854 20.0134C0.685742 21.0721 2.64454 21.36 3.81049 21.2495C53.8487 16.4507 104.158 12.9956 154.591 10.9191C205.062 8.8396 255.647 8.13578 306.202 8.81342C331.348 9.15079 356.639 9.50561 381.709 10.9743C396.188 11.8236 410.815 13.4086 424.467 16.7939C433.659 20.3915 442.177 24.7889 449.809 29.9599C460.65 37.3064 469.566 45.8191 476.672 55.0298C477.13 56.2397 477.546 57.4553 477.923 58.6768C482.451 73.4337 481.709 88.7636 481.955 103.756C482.417 131.804 482.875 159.855 483.337 187.903C480.764 194.633 478.02 201.313 475.239 207.93C473.467 212.141 471.665 216.349 469.859 220.555C469.096 222.338 475.79 221.739 476.511 220.058C478.89 214.517 481.268 208.956 483.592 203.375C483.621 205.28 483.655 207.188 483.685 209.093C483.757 213.386 483.825 217.678 483.897 221.971C483.931 224.12 490.596 223.277 490.566 221.515C490.379 210.12 490.193 198.725 490.002 187.33C499.211 163.106 506.041 138.47 505.015 113.348L505.011 113.345ZM368.493 7.31272C355.693 6.85029 342.889 6.5042 330.076 6.23373C298.888 5.57353 267.679 5.43975 236.478 5.82365C239.692 5.72186 242.91 5.61425 246.124 5.51537C272.313 4.71848 298.541 3.87798 324.751 3.65985C348.456 3.46208 372.517 4.10483 395.471 8.51386C396.51 8.71454 397.545 8.92394 398.575 9.14206C388.603 8.17068 378.546 7.67626 368.485 7.31272H368.493ZM488.802 114.523C488.658 105.882 488.548 97.2385 488.374 88.5978C488.264 83.1098 488.065 77.613 487.454 72.1366C492.584 82.3129 495.866 92.94 497.401 103.52C500.631 125.761 496.642 147.98 489.714 169.79C489.413 151.368 489.107 132.947 488.806 114.523H488.802Z" fill="black"/>
</svg>
